<mxfile host="Electron" modified="2024-04-04T11:51:24.088Z" agent="Mozilla/5.0 (Windows NT 10.0; Win64; x64) AppleWebKit/537.36 (KHTML, like Gecko) draw.io/24.0.4 Chrome/120.0.6099.109 Electron/28.1.0 Safari/537.36" etag="ywDAnlDmYEwXqJcu9-qH" version="24.0.4" type="device">
  <diagram id="23iRSUPoRavnBvh4doch" name="Page-1">
    <mxGraphModel dx="1195" dy="697" grid="1" gridSize="10" guides="1" tooltips="1" connect="1" arrows="1" fold="1" page="1" pageScale="1" pageWidth="827" pageHeight="1169" math="0" shadow="0">
      <root>
        <mxCell id="0" />
        <mxCell id="1" parent="0" />
        <mxCell id="2" value="Binary search" style="text;html=1;strokeColor=none;fillColor=none;align=center;verticalAlign=middle;whiteSpace=wrap;rounded=0;fontSize=24;fontFamily=Comic Sans MS;" parent="1" vertex="1">
          <mxGeometry x="329" y="40" width="170" height="40" as="geometry" />
        </mxCell>
        <mxCell id="YHPChQURx4VD87YsdcuE-2" value="&lt;font style=&quot;font-size: 20px;&quot;&gt;Start&lt;/font&gt;" style="ellipse;whiteSpace=wrap;html=1;fillColor=#6a00ff;fontColor=#ffffff;strokeColor=#3700CC;fontSize=24;fontFamily=Comic Sans MS;gradientColor=default;" vertex="1" parent="1">
          <mxGeometry x="353" y="120" width="122" height="40" as="geometry" />
        </mxCell>
        <mxCell id="YHPChQURx4VD87YsdcuE-3" value="&lt;font style=&quot;font-size: 14px;&quot;&gt;Запит на розмір&amp;nbsp;&lt;span style=&quot;background-color: initial;&quot;&gt;масива&lt;/span&gt;&lt;/font&gt;" style="shape=parallelogram;perimeter=parallelogramPerimeter;whiteSpace=wrap;html=1;fixedSize=1;fillColor=#6a00ff;fontColor=#ffffff;strokeColor=#3700CC;fontSize=13;fontFamily=Comic Sans MS;" vertex="1" parent="1">
          <mxGeometry x="306.69" y="200" width="213.38" height="40" as="geometry" />
        </mxCell>
        <mxCell id="YHPChQURx4VD87YsdcuE-4" value="" style="endArrow=classic;html=1;rounded=0;exitX=0.5;exitY=1;exitDx=0;exitDy=0;" edge="1" parent="1" source="YHPChQURx4VD87YsdcuE-2" target="YHPChQURx4VD87YsdcuE-3">
          <mxGeometry width="50" height="50" relative="1" as="geometry">
            <mxPoint x="380" y="340" as="sourcePoint" />
            <mxPoint x="430" y="290" as="targetPoint" />
          </mxGeometry>
        </mxCell>
        <mxCell id="YHPChQURx4VD87YsdcuE-5" value="Створення масива" style="rounded=1;whiteSpace=wrap;html=1;fillColor=#6a00ff;fontColor=#ffffff;strokeColor=#3700CC;fontSize=13;fontFamily=Comic Sans MS;" vertex="1" parent="1">
          <mxGeometry x="314.5" y="280" width="199" height="40" as="geometry" />
        </mxCell>
        <mxCell id="YHPChQURx4VD87YsdcuE-6" value="Ініціалізація масива" style="rounded=1;whiteSpace=wrap;html=1;fillColor=#6a00ff;fontColor=#ffffff;strokeColor=#3700CC;fontSize=13;fontFamily=Comic Sans MS;" vertex="1" parent="1">
          <mxGeometry x="313.88" y="360" width="199" height="40" as="geometry" />
        </mxCell>
        <mxCell id="YHPChQURx4VD87YsdcuE-7" value="" style="endArrow=classic;html=1;rounded=0;exitX=0.5;exitY=1;exitDx=0;exitDy=0;entryX=0.5;entryY=0;entryDx=0;entryDy=0;" edge="1" parent="1" source="YHPChQURx4VD87YsdcuE-3" target="YHPChQURx4VD87YsdcuE-5">
          <mxGeometry width="50" height="50" relative="1" as="geometry">
            <mxPoint x="360" y="340" as="sourcePoint" />
            <mxPoint x="410" y="290" as="targetPoint" />
          </mxGeometry>
        </mxCell>
        <mxCell id="YHPChQURx4VD87YsdcuE-8" value="" style="endArrow=classic;html=1;rounded=0;exitX=0.5;exitY=1;exitDx=0;exitDy=0;" edge="1" parent="1" source="YHPChQURx4VD87YsdcuE-5" target="YHPChQURx4VD87YsdcuE-6">
          <mxGeometry width="50" height="50" relative="1" as="geometry">
            <mxPoint x="360" y="340" as="sourcePoint" />
            <mxPoint x="410" y="290" as="targetPoint" />
          </mxGeometry>
        </mxCell>
        <mxCell id="YHPChQURx4VD87YsdcuE-9" value="&lt;font style=&quot;font-size: 14px;&quot;&gt;Запит шукаємого числа&lt;/font&gt;" style="shape=parallelogram;perimeter=parallelogramPerimeter;whiteSpace=wrap;html=1;fixedSize=1;fillColor=#6a00ff;fontColor=#ffffff;strokeColor=#3700CC;fontSize=13;fontFamily=Comic Sans MS;" vertex="1" parent="1">
          <mxGeometry x="307" y="440" width="214" height="40" as="geometry" />
        </mxCell>
        <mxCell id="YHPChQURx4VD87YsdcuE-10" value="" style="endArrow=classic;html=1;rounded=0;exitX=0.5;exitY=1;exitDx=0;exitDy=0;" edge="1" parent="1" source="YHPChQURx4VD87YsdcuE-6" target="YHPChQURx4VD87YsdcuE-9">
          <mxGeometry width="50" height="50" relative="1" as="geometry">
            <mxPoint x="350" y="310" as="sourcePoint" />
            <mxPoint x="400" y="260" as="targetPoint" />
          </mxGeometry>
        </mxCell>
        <mxCell id="YHPChQURx4VD87YsdcuE-12" value="Сортування масива" style="shape=process;whiteSpace=wrap;html=1;backgroundOutline=1;fillColor=#6a00ff;fontColor=#ffffff;strokeColor=#3700CC;fontSize=13;fontFamily=Comic Sans MS;" vertex="1" parent="1">
          <mxGeometry x="313.38" y="520" width="200" height="40" as="geometry" />
        </mxCell>
        <mxCell id="YHPChQURx4VD87YsdcuE-13" value="" style="endArrow=classic;html=1;rounded=0;exitX=0.5;exitY=1;exitDx=0;exitDy=0;entryX=0.5;entryY=0;entryDx=0;entryDy=0;" edge="1" parent="1" source="YHPChQURx4VD87YsdcuE-9" target="YHPChQURx4VD87YsdcuE-12">
          <mxGeometry width="50" height="50" relative="1" as="geometry">
            <mxPoint x="370" y="600" as="sourcePoint" />
            <mxPoint x="420" y="550" as="targetPoint" />
          </mxGeometry>
        </mxCell>
        <mxCell id="YHPChQURx4VD87YsdcuE-14" value="Знаходимо середину діапазона" style="shape=process;whiteSpace=wrap;html=1;backgroundOutline=1;fillColor=#6a00ff;fontColor=#ffffff;strokeColor=#3700CC;fontSize=13;fontFamily=Comic Sans MS;" vertex="1" parent="1">
          <mxGeometry x="314" y="720" width="200" height="40" as="geometry" />
        </mxCell>
        <mxCell id="YHPChQURx4VD87YsdcuE-15" value="Елемент з&amp;nbsp;&lt;div&gt;індексом середини дорівнює&amp;nbsp;&lt;div&gt;числу ?&lt;/div&gt;&lt;/div&gt;" style="rhombus;whiteSpace=wrap;html=1;fillColor=#6a00ff;fontColor=#ffffff;strokeColor=#3700CC;fontFamily=Comic Sans MS;fontSize=13;" vertex="1" parent="1">
          <mxGeometry x="293.38" y="800" width="240" height="80" as="geometry" />
        </mxCell>
        <mxCell id="YHPChQURx4VD87YsdcuE-17" value="&lt;font style=&quot;font-size: 14px;&quot;&gt;Вивід індекса на екран&lt;/font&gt;" style="shape=parallelogram;perimeter=parallelogramPerimeter;whiteSpace=wrap;html=1;fixedSize=1;fillColor=#6a00ff;fontColor=#ffffff;strokeColor=#3700CC;fontSize=13;fontFamily=Comic Sans MS;" vertex="1" parent="1">
          <mxGeometry x="559.38" y="880" width="214" height="40" as="geometry" />
        </mxCell>
        <mxCell id="YHPChQURx4VD87YsdcuE-18" value="" style="endArrow=classic;html=1;rounded=0;exitX=1;exitY=0.5;exitDx=0;exitDy=0;entryX=0.5;entryY=0;entryDx=0;entryDy=0;" edge="1" parent="1" source="YHPChQURx4VD87YsdcuE-15" target="YHPChQURx4VD87YsdcuE-17">
          <mxGeometry width="50" height="50" relative="1" as="geometry">
            <mxPoint x="540.0000000000001" y="809.9999999999998" as="sourcePoint" />
            <mxPoint x="673.0000000000003" y="840" as="targetPoint" />
            <Array as="points">
              <mxPoint x="666" y="840" />
            </Array>
          </mxGeometry>
        </mxCell>
        <mxCell id="YHPChQURx4VD87YsdcuE-19" value="&lt;font style=&quot;font-size: 20px;&quot;&gt;Finish&lt;/font&gt;" style="ellipse;whiteSpace=wrap;html=1;fillColor=#6a00ff;fontColor=#ffffff;strokeColor=#3700CC;fontSize=24;fontFamily=Comic Sans MS;gradientColor=default;" vertex="1" parent="1">
          <mxGeometry x="604.76" y="960" width="122" height="40" as="geometry" />
        </mxCell>
        <mxCell id="YHPChQURx4VD87YsdcuE-20" value="" style="endArrow=classic;html=1;rounded=0;exitX=0.5;exitY=1;exitDx=0;exitDy=0;entryX=0.5;entryY=0;entryDx=0;entryDy=0;" edge="1" parent="1" source="YHPChQURx4VD87YsdcuE-17" target="YHPChQURx4VD87YsdcuE-19">
          <mxGeometry width="50" height="50" relative="1" as="geometry">
            <mxPoint x="552.38" y="780" as="sourcePoint" />
            <mxPoint x="752.38" y="940" as="targetPoint" />
          </mxGeometry>
        </mxCell>
        <mxCell id="YHPChQURx4VD87YsdcuE-21" value="" style="endArrow=classic;html=1;rounded=0;exitX=0.5;exitY=1;exitDx=0;exitDy=0;" edge="1" parent="1" source="YHPChQURx4VD87YsdcuE-15">
          <mxGeometry width="50" height="50" relative="1" as="geometry">
            <mxPoint x="300" y="840" as="sourcePoint" />
            <mxPoint x="414" y="940" as="targetPoint" />
          </mxGeometry>
        </mxCell>
        <mxCell id="YHPChQURx4VD87YsdcuE-23" value="&lt;font face=&quot;Comic Sans MS&quot;&gt;&lt;span style=&quot;font-size: 16px;&quot;&gt;Так&lt;/span&gt;&lt;/font&gt;" style="text;html=1;align=center;verticalAlign=middle;resizable=0;points=[];autosize=1;strokeColor=none;fillColor=none;" vertex="1" parent="1">
          <mxGeometry x="244" y="930" width="50" height="30" as="geometry" />
        </mxCell>
        <mxCell id="YHPChQURx4VD87YsdcuE-24" value="Змінюємо верхню межу&lt;div&gt;на значення середини мінус 1&lt;/div&gt;" style="rounded=1;whiteSpace=wrap;html=1;fillColor=#6a00ff;fontColor=#ffffff;strokeColor=#3700CC;fontSize=13;" vertex="1" parent="1">
          <mxGeometry x="80" y="1010" width="160" height="60" as="geometry" />
        </mxCell>
        <mxCell id="YHPChQURx4VD87YsdcuE-25" value="Змінюємо нижню межу на значення середини плюс 1&amp;nbsp;" style="rounded=1;whiteSpace=wrap;html=1;fillColor=#6a00ff;fontColor=#ffffff;strokeColor=#3700CC;" vertex="1" parent="1">
          <mxGeometry x="80" y="938" width="160" height="40" as="geometry" />
        </mxCell>
        <mxCell id="YHPChQURx4VD87YsdcuE-26" value="&lt;font face=&quot;Comic Sans MS&quot; style=&quot;font-size: 16px;&quot;&gt;Ні&lt;/font&gt;" style="text;html=1;align=center;verticalAlign=middle;resizable=0;points=[];autosize=1;strokeColor=none;fillColor=none;" vertex="1" parent="1">
          <mxGeometry x="414" y="880" width="40" height="30" as="geometry" />
        </mxCell>
        <mxCell id="YHPChQURx4VD87YsdcuE-27" value="Елемент з&amp;nbsp;&lt;div&gt;індексом середини менше&amp;nbsp;&lt;div&gt;числа ?&lt;/div&gt;&lt;/div&gt;" style="rhombus;whiteSpace=wrap;html=1;fillColor=#6a00ff;fontColor=#ffffff;strokeColor=#3700CC;fontFamily=Comic Sans MS;fontSize=13;" vertex="1" parent="1">
          <mxGeometry x="294" y="920" width="240" height="80" as="geometry" />
        </mxCell>
        <mxCell id="YHPChQURx4VD87YsdcuE-28" value="" style="endArrow=classic;html=1;rounded=0;exitX=0.5;exitY=1;exitDx=0;exitDy=0;entryX=1;entryY=0.5;entryDx=0;entryDy=0;" edge="1" parent="1" source="YHPChQURx4VD87YsdcuE-27" target="YHPChQURx4VD87YsdcuE-24">
          <mxGeometry width="50" height="50" relative="1" as="geometry">
            <mxPoint x="414" y="950" as="sourcePoint" />
            <mxPoint x="270" y="1060" as="targetPoint" />
            <Array as="points">
              <mxPoint x="414" y="1040" />
            </Array>
          </mxGeometry>
        </mxCell>
        <mxCell id="YHPChQURx4VD87YsdcuE-29" value="" style="endArrow=classic;html=1;rounded=0;exitX=0;exitY=0.5;exitDx=0;exitDy=0;" edge="1" parent="1" source="YHPChQURx4VD87YsdcuE-27" target="YHPChQURx4VD87YsdcuE-25">
          <mxGeometry width="50" height="50" relative="1" as="geometry">
            <mxPoint x="310" y="1010" as="sourcePoint" />
            <mxPoint x="240" y="980" as="targetPoint" />
          </mxGeometry>
        </mxCell>
        <mxCell id="YHPChQURx4VD87YsdcuE-30" value="&lt;font face=&quot;Comic Sans MS&quot; style=&quot;font-size: 16px;&quot;&gt;Ні&lt;/font&gt;" style="text;html=1;align=center;verticalAlign=middle;resizable=0;points=[];autosize=1;strokeColor=none;fillColor=none;" vertex="1" parent="1">
          <mxGeometry x="244" y="1010" width="40" height="30" as="geometry" />
        </mxCell>
        <mxCell id="YHPChQURx4VD87YsdcuE-31" value="Нижня межа діапазону&lt;div&gt;&lt;span style=&quot;background-color: initial;&quot;&gt;не більша за&amp;nbsp;вищу ?&lt;/span&gt;&lt;/div&gt;" style="rhombus;whiteSpace=wrap;html=1;fillColor=#6a00ff;fontColor=#ffffff;strokeColor=#3700CC;fontFamily=Comic Sans MS;fontSize=13;" vertex="1" parent="1">
          <mxGeometry x="293.38" y="600" width="240" height="80" as="geometry" />
        </mxCell>
        <mxCell id="YHPChQURx4VD87YsdcuE-32" value="" style="endArrow=classic;html=1;rounded=0;exitX=1;exitY=0.5;exitDx=0;exitDy=0;entryX=0.5;entryY=1;entryDx=0;entryDy=0;" edge="1" parent="1" source="YHPChQURx4VD87YsdcuE-31" target="YHPChQURx4VD87YsdcuE-33">
          <mxGeometry width="50" height="50" relative="1" as="geometry">
            <mxPoint x="310" y="700" as="sourcePoint" />
            <mxPoint x="650" y="610" as="targetPoint" />
            <Array as="points">
              <mxPoint x="666" y="640" />
            </Array>
          </mxGeometry>
        </mxCell>
        <mxCell id="YHPChQURx4VD87YsdcuE-33" value="&lt;font style=&quot;font-size: 14px;&quot;&gt;Вивід негативної відповіді&lt;/font&gt;&lt;div&gt;&lt;font style=&quot;font-size: 14px;&quot;&gt;на екран&lt;/font&gt;&lt;/div&gt;" style="shape=parallelogram;perimeter=parallelogramPerimeter;whiteSpace=wrap;html=1;fixedSize=1;fillColor=#6a00ff;fontColor=#ffffff;strokeColor=#3700CC;fontSize=13;fontFamily=Comic Sans MS;" vertex="1" parent="1">
          <mxGeometry x="559.38" y="560" width="214" height="40" as="geometry" />
        </mxCell>
        <mxCell id="YHPChQURx4VD87YsdcuE-34" value="&lt;font style=&quot;font-size: 20px;&quot;&gt;Finish&lt;/font&gt;" style="ellipse;whiteSpace=wrap;html=1;fillColor=#6a00ff;fontColor=#ffffff;strokeColor=#3700CC;fontSize=24;fontFamily=Comic Sans MS;gradientColor=default;" vertex="1" parent="1">
          <mxGeometry x="605.38" y="480" width="122" height="40" as="geometry" />
        </mxCell>
        <mxCell id="YHPChQURx4VD87YsdcuE-35" value="" style="endArrow=classic;html=1;rounded=0;exitX=0.5;exitY=0;exitDx=0;exitDy=0;entryX=0.5;entryY=1;entryDx=0;entryDy=0;" edge="1" source="YHPChQURx4VD87YsdcuE-33" target="YHPChQURx4VD87YsdcuE-34" parent="1">
          <mxGeometry width="50" height="50" relative="1" as="geometry">
            <mxPoint x="553" y="390" as="sourcePoint" />
            <mxPoint x="700" y="630" as="targetPoint" />
          </mxGeometry>
        </mxCell>
        <mxCell id="YHPChQURx4VD87YsdcuE-36" value="" style="endArrow=classic;html=1;rounded=0;exitX=0.5;exitY=1;exitDx=0;exitDy=0;entryX=0.5;entryY=0;entryDx=0;entryDy=0;" edge="1" parent="1" source="YHPChQURx4VD87YsdcuE-31" target="YHPChQURx4VD87YsdcuE-14">
          <mxGeometry width="50" height="50" relative="1" as="geometry">
            <mxPoint x="340" y="710" as="sourcePoint" />
            <mxPoint x="390" y="660" as="targetPoint" />
          </mxGeometry>
        </mxCell>
        <mxCell id="YHPChQURx4VD87YsdcuE-37" value="" style="endArrow=classic;html=1;rounded=0;exitX=0.5;exitY=1;exitDx=0;exitDy=0;entryX=0.5;entryY=0;entryDx=0;entryDy=0;" edge="1" parent="1" source="YHPChQURx4VD87YsdcuE-12" target="YHPChQURx4VD87YsdcuE-31">
          <mxGeometry width="50" height="50" relative="1" as="geometry">
            <mxPoint x="340" y="710" as="sourcePoint" />
            <mxPoint x="390" y="660" as="targetPoint" />
          </mxGeometry>
        </mxCell>
        <mxCell id="YHPChQURx4VD87YsdcuE-38" value="" style="endArrow=classic;html=1;rounded=0;exitX=0.5;exitY=1;exitDx=0;exitDy=0;entryX=0.5;entryY=0;entryDx=0;entryDy=0;" edge="1" parent="1" source="YHPChQURx4VD87YsdcuE-14" target="YHPChQURx4VD87YsdcuE-15">
          <mxGeometry width="50" height="50" relative="1" as="geometry">
            <mxPoint x="350" y="860" as="sourcePoint" />
            <mxPoint x="400" y="810" as="targetPoint" />
          </mxGeometry>
        </mxCell>
        <mxCell id="YHPChQURx4VD87YsdcuE-40" value="&lt;font face=&quot;Comic Sans MS&quot;&gt;&lt;span style=&quot;font-size: 16px;&quot;&gt;Так&lt;/span&gt;&lt;/font&gt;" style="text;html=1;align=center;verticalAlign=middle;resizable=0;points=[];autosize=1;strokeColor=none;fillColor=none;" vertex="1" parent="1">
          <mxGeometry x="559.38" y="610" width="50" height="30" as="geometry" />
        </mxCell>
        <mxCell id="YHPChQURx4VD87YsdcuE-41" value="" style="endArrow=classic;html=1;rounded=0;exitX=0.5;exitY=0;exitDx=0;exitDy=0;" edge="1" parent="1" source="YHPChQURx4VD87YsdcuE-25">
          <mxGeometry width="50" height="50" relative="1" as="geometry">
            <mxPoint x="280" y="800" as="sourcePoint" />
            <mxPoint x="410" y="590" as="targetPoint" />
            <Array as="points">
              <mxPoint x="160" y="590" />
            </Array>
          </mxGeometry>
        </mxCell>
        <mxCell id="YHPChQURx4VD87YsdcuE-42" value="" style="endArrow=classic;html=1;rounded=0;exitX=0;exitY=0.5;exitDx=0;exitDy=0;" edge="1" parent="1" source="YHPChQURx4VD87YsdcuE-24">
          <mxGeometry width="50" height="50" relative="1" as="geometry">
            <mxPoint x="30" y="1045" as="sourcePoint" />
            <mxPoint x="410" y="580" as="targetPoint" />
            <Array as="points">
              <mxPoint x="40" y="1040" />
              <mxPoint x="40" y="580" />
            </Array>
          </mxGeometry>
        </mxCell>
      </root>
    </mxGraphModel>
  </diagram>
</mxfile>
